<mxfile host="app.diagrams.net" modified="2023-09-03T06:30:13.558Z" agent="Mozilla/5.0 (Macintosh; Intel Mac OS X 10_15_7) AppleWebKit/605.1.15 (KHTML, like Gecko) Version/17.0 Safari/605.1.15" version="21.7.2" etag="pRFq-En1pEimz_PJimtI" type="github">
  <diagram name="PÃ¡gina-1" id="zTNXmD61EJhB8WxZmDNj">
    <mxGraphModel>
      <root>
        <mxCell id="0" />
        <mxCell id="1" parent="0" />
      </root>
    </mxGraphModel>
  </diagram>
</mxfile>
